<?xml version="1.0" standalone="no"?><!DOCTYPE svg PUBLIC "-//W3C//DTD SVG 1.1//EN" "http://www.w3.org/Graphics/SVG/1.1/DTD/svg11.dtd"><svg t="1590642970329" class="icon" viewBox="0 0 1024 1024" version="1.1" xmlns="http://www.w3.org/2000/svg" p-id="3631" xmlns:xlink="http://www.w3.org/1999/xlink" width="200" height="200"><defs><style type="text/css"></style></defs><path d="M510.38 718.42c-12.28 0-24.56-4.69-33.94-14.06L159.67 387.55c-18.75-18.75-18.75-49.12 0-67.88s49.12-18.75 67.88 0l316.78 316.81c18.75 18.75 18.75 49.12 0 67.88-9.38 9.37-21.66 14.06-33.95 14.06z" fill="#131414" p-id="3632"></path><path d="M513.6 718.42c-12.28 0-24.56-4.69-33.94-14.06-18.75-18.75-18.75-49.12 0-67.88l316.78-316.81c18.75-18.75 49.12-18.75 67.88 0s18.75 49.12 0 67.88L547.54 704.36c-9.37 9.37-21.66 14.06-33.94 14.06z" fill="#131414" p-id="3633"></path></svg>