<?xml version="1.0" standalone="no"?><!DOCTYPE svg PUBLIC "-//W3C//DTD SVG 1.1//EN"
        "http://www.w3.org/Graphics/SVG/1.1/DTD/svg11.dtd">
<svg t="1591340015558" class="icon" viewBox="0 0 1024 1024" version="1.1" xmlns="http://www.w3.org/2000/svg" p-id="2953"
     xmlns:xlink="http://www.w3.org/1999/xlink" width="200" height="200">
    <defs>
        <style type="text/css"></style>
    </defs>
    <path d="M224 512m-64 0a64 64 0 1 0 128 0 64 64 0 1 0-128 0Z" fill="#2c2c2c" p-id="2954"></path>
    <path d="M224 832m-64 0a64 64 0 1 0 128 0 64 64 0 1 0-128 0Z" fill="#2c2c2c" p-id="2955"></path>
    <path d="M224 192m-64 0a64 64 0 1 0 128 0 64 64 0 1 0-128 0Z" fill="#2c2c2c" p-id="2956"></path>
    <path d="M384 160h480v64H384zM384 480h480v64H384zM384 800h480v64H384z" fill="#2c2c2c" p-id="2957"></path>
</svg>