<?xml version="1.0" standalone="no"?><!DOCTYPE svg PUBLIC "-//W3C//DTD SVG 1.1//EN" "http://www.w3.org/Graphics/SVG/1.1/DTD/svg11.dtd"><svg t="1590982003809" class="icon" viewBox="0 0 1024 1024" version="1.1" xmlns="http://www.w3.org/2000/svg" p-id="6512" xmlns:xlink="http://www.w3.org/1999/xlink" width="200" height="200"><defs><style type="text/css"></style></defs><path d="M499.411332 949.076137c-168.94358 0-306.385081-137.441501-306.385082-306.385081V529.088965c0-43.300154 35.150968-78.451122 78.329493-78.451122h479.22081c43.300154 0 78.572752 35.272598 78.572752 78.572752v113.480461c0 168.94358-137.441501 306.385081-306.385081 306.385081h-23.352892z" fill="#BAD4FF" p-id="6513"></path><path d="M750.698183 470.220216c32.596745 0 58.868749 26.393633 58.868749 58.868749v113.480461c0 157.753652-129.049056 286.802708-286.802708 286.802708h-23.474522C341.536049 929.372134 212.486994 800.323079 212.486994 642.569426V529.088965c0-32.475116 26.272004-58.74712 58.747119-58.747119h479.46407m0-39.286376h-479.22081c-54.003563 0-98.033496 43.908303-98.033496 98.033495v113.602091c0 179.768619 146.198836 325.967455 325.967455 325.967455h23.474521c179.768619 0 325.967455-146.198836 325.967455-325.967455v-113.480461c0-54.125193-44.029932-98.155125-98.155125-98.155125z" fill="#4E8CEE" p-id="6514"></path><path d="M511.452667 774.051075c-24.08267 0-43.665043-19.582373-43.665044-43.665043V664.097874c0-24.08267 19.582373-43.665043 43.665044-43.665043 24.08267 0 43.665043 19.582373 43.665043 43.665043v66.166528c0 24.2043-19.582373 43.786673-43.665043 43.786673z" fill="#FFFFFF" p-id="6515"></path><path d="M511.452667 640.015204c13.257632 0 24.08267 10.825039 24.08267 24.08267v66.166528c0 13.257632-10.825039 24.08267-24.08267 24.08267s-24.08267-10.825039-24.082671-24.08267V664.097874c0-13.257632 10.825039-24.08267 24.082671-24.08267m0-39.164747c-34.907709 0-63.369046 28.461337-63.369047 63.369047v66.166528c0 34.907709 28.461337 63.369046 63.369047 63.369046 34.907709 0 63.369046-28.461337 63.369046-63.369046V664.097874c-0.12163-34.907709-28.461337-63.247417-63.369046-63.247417zM323.656491 378.633092v-94.384606c0-103.50683 84.654234-188.282694 188.282694-188.282694 96.330681 0 186.09336 84.775864 186.09336 188.282694v94.384606h42.813636v-92.073643c0-126.494833-103.50683-230.123293-230.123292-230.123293-126.494833 0-230.123293 103.50683-230.123293 230.123293v92.073643h43.056895z" fill="#4E8CEE" p-id="6516"></path><path d="M302.128044 378.024944m-21.406818 0a21.406818 21.406818 0 1 0 42.813636 0 21.406818 21.406818 0 1 0-42.813636 0Z" fill="#4E8CEE" p-id="6517"></path><path d="M719.317734 378.024944m-21.406818 0a21.406818 21.406818 0 1 0 42.813636 0 21.406818 21.406818 0 1 0-42.813636 0Z" fill="#4E8CEE" p-id="6518"></path></svg>