<?xml version="1.0" standalone="no"?><!DOCTYPE svg PUBLIC "-//W3C//DTD SVG 1.1//EN" "http://www.w3.org/Graphics/SVG/1.1/DTD/svg11.dtd"><svg t="1590584741062" class="icon" viewBox="0 0 1024 1024" version="1.1" xmlns="http://www.w3.org/2000/svg" p-id="2906" xmlns:xlink="http://www.w3.org/1999/xlink" width="200" height="200"><defs><style type="text/css"></style></defs><path d="M478.6 113.9c49.2 0 96.8 9.6 141.7 28.6 43.3 18.3 82.3 44.6 115.7 78 33.4 33.4 59.7 72.4 78 115.7 19 44.8 28.6 92.5 28.6 141.7 0 49.2-9.6 96.8-28.6 141.7-18.3 43.3-44.6 82.3-78 115.7-33.4 33.4-72.4 59.7-115.7 78-44.8 19-92.5 28.6-141.7 28.6-49.2 0-96.8-9.6-141.7-28.6-43.3-18.3-82.3-44.6-115.7-78-33.4-33.4-59.7-72.4-78-115.7-19-44.8-28.6-92.5-28.6-141.7 0-49.2 9.6-96.8 28.6-141.7 18.3-43.3 44.6-82.3 78-115.7 33.4-33.4 72.4-59.7 115.7-78 44.9-19 92.6-28.6 141.7-28.6m0-50c-228.6 0-414 185.4-414 414 0 228.7 185.4 414 414 414 228.7 0 414-185.4 414-414 0.1-228.6-185.3-414-414-414z" fill="#ffffff" p-id="2907"></path><path d="M952.1 952.2l-0.6 0.6c-9.7 9.7-25.6 9.7-35.4 0L736 772.7c-9.7-9.7-9.7-25.6 0-35.4l0.6-0.6c9.7-9.7 25.6-9.7 35.4 0l180.1 180.1c9.7 9.8 9.7 25.7 0 35.4z" fill="#ffffff" p-id="2908"></path></svg>